# xmcd
#
# Track frame offsets:
#  150
#  15550
#  27120
#  39070
#  51667
#  65202
#  77012
#  93255
#  102755
#  115507
#  127952
#  141280
#  157907
#  170770
#  187150
#  201025
#  217652
#  227420
#  238342
#  251112
#
# Disc length: 3466 seconds
#
# Revision: 2
# Processed by: cddbd v1.5.1PL2 Copyright (c) Steve Scherf et al.
# Submitted via: Collectorz.com Music Collector 6.9
#
DISCID=0a0d8814
DTITLE=Suzanne Prentice - 20 Country Ballads
DYEAR=1995
DGENRE=Country
TTITLE0=You Needed Me
TTITLE1=Four Strong Winds
TTITLE2=Don't It Make My Brown Eyes Blue
TTITLE3=Womanhood
TTITLE4=It's A Heartache
TTITLE5=What I've Got In Mind
TTITLE6=Together Again
TTITLE7=When Will I Be Loved
TTITLE8=Don't Believe My Heart Can Stand Another You
TTITLE9=Paper Roses
TTITLE10=Talking In Your Sleep
TTITLE11=You Light Up My Life
TTITLE12=We're All Alone
TTITLE13=I Honestly Love You
TTITLE14=One Of These Days
TTITLE15=Please Come To Boston
TTITLE16=Satin Sheets
TTITLE17=I Don't Wanna' Play House
TTITLE18=Banks Of The Ohio
TTITLE19=The Happiest Girl In The Whole U.S.A.
EXTD=
EXTT0=
EXTT1=
EXTT2=
EXTT3=
EXTT4=
EXTT5=
EXTT6=
EXTT7=
EXTT8=
EXTT9=
EXTT10=
EXTT11=
EXTT12=
EXTT13=
EXTT14=
EXTT15=
EXTT16=
EXTT17=
EXTT18=
EXTT19=
PLAYORDER=
